<svg width="32" height="32" viewBox="0 0 32 32" fill="none" xmlns="http://www.w3.org/2000/svg">
  <defs>
    <linearGradient id="brainGradient" x1="0%" y1="0%" x2="100%" y2="100%">
      <stop offset="0%" style="stop-color:#3B82F6"/>
      <stop offset="50%" style="stop-color:#8B5CF6"/>
      <stop offset="100%" style="stop-color:#EC4899"/>
    </linearGradient>
    <linearGradient id="circuitGradient" x1="0%" y1="0%" x2="100%" y2="100%">
      <stop offset="0%" style="stop-color:#06B6D4"/>
      <stop offset="100%" style="stop-color:#3B82F6"/>
    </linearGradient>
  </defs>
  
  <!-- Main brain shape -->
  <path d="M16 4C20.4183 4 24 7.58172 24 12C24 13.5 23.7 14.9 23.2 16.2C25.3 17.8 26.5 20.2 26 22.8C25.5 25.4 23.5 27.5 20.8 28C18.1 28.5 15.5 27.5 14 25.5C12.5 27.5 9.9 28.5 7.2 28C4.5 27.5 2.5 25.4 2 22.8C1.5 20.2 2.7 17.8 4.8 16.2C4.3 14.9 4 13.5 4 12C4 7.58172 7.58172 4 12 4H16Z" fill="url(#brainGradient)" opacity="0.9"/>
  
  <!-- Neural network nodes -->
  <circle cx="10" cy="10" r="1.5" fill="#60A5FA"/>
  <circle cx="16" cy="8" r="1.5" fill="#A78BFA"/>
  <circle cx="22" cy="12" r="1.5" fill="#F472B6"/>
  <circle cx="8" cy="16" r="1.5" fill="#06B6D4"/>
  <circle cx="18" cy="18" r="1.5" fill="#3B82F6"/>
  <circle cx="14" cy="22" r="1.5" fill="#8B5CF6"/>
  
  <!-- Neural connections -->
  <line x1="10" y1="10" x2="16" y2="8" stroke="url(#circuitGradient)" stroke-width="0.8" opacity="0.7"/>
  <line x1="16" y1="8" x2="22" y2="12" stroke="url(#circuitGradient)" stroke-width="0.8" opacity="0.7"/>
  <line x1="10" y1="10" x2="8" y2="16" stroke="url(#circuitGradient)" stroke-width="0.8" opacity="0.7"/>
  <line x1="16" y1="8" x2="18" y2="18" stroke="url(#circuitGradient)" stroke-width="0.8" opacity="0.7"/>
  <line x1="8" y1="16" x2="14" y2="22" stroke="url(#circuitGradient)" stroke-width="0.8" opacity="0.7"/>
  <line x1="18" y1="18" x2="14" y2="22" stroke="url(#circuitGradient)" stroke-width="0.8" opacity="0.7"/>
  
  <!-- Circuit patterns -->
  <rect x="6" y="20" width="4" height="0.5" fill="#06B6D4" opacity="0.6" rx="0.25"/>
  <rect x="20" y="15" width="4" height="0.5" fill="#3B82F6" opacity="0.6" rx="0.25"/>
  <rect x="12" y="6" width="0.5" height="4" fill="#8B5CF6" opacity="0.6" rx="0.25"/>
  
  <!-- Central processing core -->
  <circle cx="16" cy="16" r="2" fill="none" stroke="url(#circuitGradient)" stroke-width="1" opacity="0.8"/>
  <circle cx="16" cy="16" r="1" fill="#F472B6" opacity="0.9"/>
  
  <!-- Glow effect -->
  <circle cx="16" cy="16" r="12" fill="none" stroke="url(#brainGradient)" stroke-width="0.5" opacity="0.3"/>
</svg> 